<svg width="149" height="50" viewBox="0 0 149 50" fill="none" xmlns="http://www.w3.org/2000/svg">
<path fill-rule="evenodd" clip-rule="evenodd" d="M1.944 7.36599C1.188 8.84199 0.809998 10.525 0.809998 12.415C0.809998 14.305 1.188 15.988 1.944 17.464C2.718 18.94 3.816 20.092 5.238 20.92C6.66 21.73 8.334 22.135 10.26 22.135C11.916 22.135 13.392 21.829 14.688 21.217C16.002 20.587 17.064 19.705 17.874 18.571C18.702 17.437 19.251 16.114 19.521 14.602H13.203C12.915 15.232 12.501 15.727 11.961 16.087C11.439 16.429 10.836 16.6 10.152 16.6C9.144 16.6 8.343 16.222 7.749 15.466C7.173 14.71 6.885 13.693 6.885 12.415C6.885 11.137 7.173 10.12 7.749 9.36399C8.343 8.60799 9.144 8.22999 10.152 8.22999C10.836 8.22999 11.439 8.40999 11.961 8.76999C12.501 9.11199 12.915 9.59799 13.203 10.228H19.521C19.251 8.71599 18.702 7.39299 17.874 6.25899C17.064 5.12499 16.002 4.25199 14.688 3.63999C13.392 3.00999 11.916 2.69499 10.26 2.69499C8.334 2.69499 6.66 3.10899 5.238 3.93699C3.816 4.74699 2.718 5.88999 1.944 7.36599ZM29.1311 29.29L38.8781 6.77199H32.2631L29.5901 14.494L26.7281 6.77199H20.0591L26.4041 21.244L22.5701 29.29H29.1311ZM47.5656 7.20399C46.8636 7.59999 46.3236 8.14899 45.9456 8.85099V2.01999H39.9516V22H45.9456V19.921C46.3236 20.623 46.8636 21.181 47.5656 21.595C48.2856 21.991 49.1406 22.189 50.1306 22.189C51.3186 22.189 52.3896 21.883 53.3436 21.271C54.2976 20.641 55.0446 19.741 55.5846 18.571C56.1426 17.383 56.4216 15.988 56.4216 14.386C56.4216 12.784 56.1426 11.398 55.5846 10.228C55.0446 9.03999 54.2976 8.13999 53.3436 7.52799C52.3896 6.89799 51.3186 6.58299 50.1306 6.58299C49.1406 6.58299 48.2856 6.78999 47.5656 7.20399ZM49.7256 12.496C50.1396 12.946 50.3466 13.576 50.3466 14.386C50.3466 15.196 50.1396 15.826 49.7256 16.276C49.3116 16.726 48.7806 16.951 48.1326 16.951C47.4846 16.951 46.9536 16.726 46.5396 16.276C46.1256 15.826 45.9186 15.196 45.9186 14.386C45.9186 13.576 46.1256 12.946 46.5396 12.496C46.9536 12.046 47.4846 11.821 48.1326 11.821C48.7806 11.821 49.3116 12.046 49.7256 12.496ZM72.9641 15.439C73.0181 15.061 73.0451 14.665 73.0451 14.251C73.0451 12.685 72.7121 11.326 72.0461 10.174C71.3981 9.02199 70.4801 8.13999 69.2921 7.52799C68.1221 6.89799 66.7811 6.58299 65.2691 6.58299C63.7571 6.58299 62.4071 6.89799 61.2191 7.52799C60.0491 8.15799 59.1311 9.06699 58.4651 10.255C57.8171 11.425 57.4931 12.802 57.4931 14.386C57.4931 15.97 57.8171 17.356 58.4651 18.544C59.1311 19.714 60.0491 20.614 61.2191 21.244C62.4071 21.874 63.7571 22.189 65.2691 22.189C66.5291 22.189 67.6811 21.946 68.7251 21.46C69.7871 20.956 70.6601 20.281 71.3441 19.435C72.0461 18.571 72.5051 17.599 72.7211 16.519H66.3761C66.0881 17.113 65.6201 17.41 64.9721 17.41C63.9641 17.41 63.4151 16.753 63.3251 15.439H72.9641ZM66.4841 11.686C66.8081 11.938 66.9701 12.316 66.9701 12.82H63.4061C63.5861 11.794 64.2071 11.281 65.2691 11.281C65.7551 11.281 66.1601 11.416 66.4841 11.686ZM83.1758 7.47399C82.2938 7.99599 81.5468 8.69799 80.9348 9.57999V6.77199H74.9408V22H80.9348V15.763C80.9348 14.755 81.1958 14.053 81.7178 13.657C82.2578 13.261 83.0948 13.063 84.2288 13.063H85.9298V6.66399C84.9758 6.66399 84.0578 6.93399 83.1758 7.47399ZM90.4873 21.487C91.6033 21.955 92.8813 22.189 94.3213 22.189C95.6353 22.189 96.7783 21.982 97.7503 21.568C98.7403 21.154 99.4963 20.587 100.018 19.867C100.54 19.147 100.801 18.337 100.801 17.437C100.801 16.285 100.522 15.385 99.9643 14.737C99.4063 14.071 98.7493 13.603 97.9933 13.333C97.2373 13.063 96.3103 12.82 95.2123 12.604C94.3843 12.442 93.7813 12.289 93.4033 12.145C93.0253 11.983 92.8363 11.749 92.8363 11.443C92.8363 11.209 92.9173 11.038 93.0793 10.93C93.2413 10.804 93.4753 10.741 93.7813 10.741C94.2673 10.741 94.6543 10.858 94.9423 11.092C95.2303 11.308 95.4193 11.623 95.5093 12.037H100.828C100.594 10.417 99.8923 9.10299 98.7223 8.09499C97.5703 7.08699 95.9683 6.58299 93.9163 6.58299C92.5303 6.58299 91.3513 6.80799 90.3793 7.25799C89.4073 7.68999 88.6693 8.29299 88.1653 9.06699C87.6793 9.82299 87.4363 10.669 87.4363 11.605C87.4363 12.685 87.6973 13.531 88.2193 14.143C88.7593 14.755 89.3803 15.187 90.0823 15.439C90.8023 15.691 91.7113 15.925 92.8093 16.141C93.7093 16.321 94.3483 16.483 94.7263 16.627C95.1043 16.771 95.2933 17.014 95.2933 17.356C95.2933 17.554 95.2033 17.725 95.0233 17.869C94.8433 17.995 94.6003 18.058 94.2943 18.058C93.8083 18.058 93.4033 17.95 93.0793 17.734C92.7733 17.518 92.5843 17.185 92.5123 16.735H86.7613C86.8513 17.779 87.2203 18.715 87.8683 19.543C88.5163 20.371 89.3893 21.019 90.4873 21.487ZM105.448 7.52799C104.494 8.13999 103.738 9.03999 103.18 10.228C102.64 11.398 102.37 12.784 102.37 14.386C102.37 15.988 102.64 17.383 103.18 18.571C103.738 19.741 104.494 20.641 105.448 21.271C106.402 21.883 107.473 22.189 108.661 22.189C109.651 22.189 110.506 21.991 111.226 21.595C111.946 21.181 112.495 20.623 112.873 19.921V22H118.84V6.77199H112.873V8.85099C112.495 8.14899 111.946 7.59999 111.226 7.20399C110.506 6.78999 109.651 6.58299 108.661 6.58299C107.473 6.58299 106.402 6.89799 105.448 7.52799ZM112.252 12.496C112.666 12.946 112.873 13.576 112.873 14.386C112.873 15.196 112.666 15.826 112.252 16.276C111.838 16.726 111.307 16.951 110.659 16.951C110.011 16.951 109.48 16.726 109.066 16.276C108.652 15.826 108.445 15.196 108.445 14.386C108.445 13.576 108.652 12.946 109.066 12.496C109.48 12.046 110.011 11.821 110.659 11.821C111.307 11.821 111.838 12.046 112.252 12.496ZM129.632 5.63799C129.758 5.63799 129.983 5.65599 130.307 5.69199V0.588987C129.731 0.552988 129.317 0.534988 129.065 0.534988C126.869 0.534988 125.159 1.08399 123.935 2.18199C122.729 3.26199 122.108 4.79199 122.072 6.77199H120.452V11.767H122.072V22H128.066V11.767H130.307V6.77199H128.12C128.21 6.35799 128.372 6.06999 128.606 5.90799C128.84 5.72799 129.182 5.63799 129.632 5.63799ZM146.581 15.439C146.635 15.061 146.662 14.665 146.662 14.251C146.662 12.685 146.329 11.326 145.663 10.174C145.015 9.02199 144.097 8.13999 142.909 7.52799C141.739 6.89799 140.398 6.58299 138.886 6.58299C137.374 6.58299 136.024 6.89799 134.836 7.52799C133.666 8.15799 132.748 9.06699 132.082 10.255C131.434 11.425 131.11 12.802 131.11 14.386C131.11 15.97 131.434 17.356 132.082 18.544C132.748 19.714 133.666 20.614 134.836 21.244C136.024 21.874 137.374 22.189 138.886 22.189C140.146 22.189 141.298 21.946 142.342 21.46C143.404 20.956 144.277 20.281 144.961 19.435C145.663 18.571 146.122 17.599 146.338 16.519H139.993C139.705 17.113 139.237 17.41 138.589 17.41C137.581 17.41 137.032 16.753 136.942 15.439H146.581ZM140.101 11.686C140.425 11.938 140.587 12.316 140.587 12.82H137.023C137.203 11.794 137.824 11.281 138.886 11.281C139.372 11.281 139.777 11.416 140.101 11.686ZM15.21 49H21.87V27.76H15.21V38.62L8.16 27.76H1.49999V49H8.16V38.32L15.21 49ZM41.1689 41.71C41.2289 41.29 41.2589 40.85 41.2589 40.39C41.2589 38.65 40.8889 37.14 40.1489 35.86C39.4289 34.58 38.4089 33.6 37.0889 32.92C35.7889 32.22 34.2989 31.87 32.6189 31.87C30.9389 31.87 29.4389 32.22 28.1189 32.92C26.8189 33.62 25.7989 34.63 25.0589 35.95C24.3389 37.25 23.9789 38.78 23.9789 40.54C23.9789 42.3 24.3389 43.84 25.0589 45.16C25.7989 46.46 26.8189 47.46 28.1189 48.16C29.4389 48.86 30.9389 49.21 32.6189 49.21C34.0189 49.21 35.2989 48.94 36.4589 48.4C37.6389 47.84 38.6089 47.09 39.3689 46.15C40.1489 45.19 40.6589 44.11 40.8989 42.91H33.8489C33.5289 43.57 33.0089 43.9 32.2889 43.9C31.1689 43.9 30.5589 43.17 30.4589 41.71H41.1689ZM33.9689 37.54C34.3289 37.82 34.5089 38.24 34.5089 38.8H30.5489C30.7489 37.66 31.4389 37.09 32.6189 37.09C33.1589 37.09 33.6089 37.24 33.9689 37.54ZM57.5252 49H65.0252L69.0452 32.08H62.8952L61.4552 42.49L59.1452 32.08H52.0352L49.8452 42.37L48.4352 32.08H41.8352L45.8252 49H53.3252L55.4852 39.46L57.5252 49ZM88.3425 42.55L95.9625 27.76H88.4625L85.0725 35.29L81.6825 27.76H74.0625L81.6825 42.55V49H88.3425V42.55ZM113.767 41.71C113.827 41.29 113.857 40.85 113.857 40.39C113.857 38.65 113.487 37.14 112.747 35.86C112.027 34.58 111.007 33.6 109.687 32.92C108.387 32.22 106.897 31.87 105.217 31.87C103.537 31.87 102.037 32.22 100.717 32.92C99.4166 33.62 98.3966 34.63 97.6566 35.95C96.9366 37.25 96.5766 38.78 96.5766 40.54C96.5766 42.3 96.9366 43.84 97.6566 45.16C98.3966 46.46 99.4166 47.46 100.717 48.16C102.037 48.86 103.537 49.21 105.217 49.21C106.617 49.21 107.897 48.94 109.057 48.4C110.237 47.84 111.207 47.09 111.967 46.15C112.747 45.19 113.257 44.11 113.497 42.91H106.447C106.127 43.57 105.607 43.9 104.887 43.9C103.767 43.9 103.157 43.17 103.057 41.71H113.767ZM106.567 37.54C106.927 37.82 107.107 38.24 107.107 38.8H103.147C103.347 37.66 104.037 37.09 105.217 37.09C105.757 37.09 106.207 37.24 106.567 37.54ZM115.963 35.92C115.363 37.22 115.063 38.76 115.063 40.54C115.063 42.32 115.363 43.87 115.963 45.19C116.583 46.49 117.423 47.49 118.483 48.19C119.543 48.87 120.733 49.21 122.053 49.21C123.153 49.21 124.103 48.99 124.903 48.55C125.703 48.09 126.313 47.47 126.733 46.69V49H133.363V32.08H126.733V34.39C126.313 33.61 125.703 33 124.903 32.56C124.103 32.1 123.153 31.87 122.053 31.87C120.733 31.87 119.543 32.22 118.483 32.92C117.423 33.6 116.583 34.6 115.963 35.92ZM126.043 38.44C126.503 38.94 126.733 39.64 126.733 40.54C126.733 41.44 126.503 42.14 126.043 42.64C125.583 43.14 124.993 43.39 124.273 43.39C123.553 43.39 122.963 43.14 122.503 42.64C122.043 42.14 121.813 41.44 121.813 40.54C121.813 39.64 122.043 38.94 122.503 38.44C122.963 37.94 123.553 37.69 124.273 37.69C124.993 37.69 125.583 37.94 126.043 38.44ZM145.504 32.86C144.524 33.44 143.694 34.22 143.014 35.2V32.08H136.354V49H143.014V42.07C143.014 40.95 143.304 40.17 143.884 39.73C144.484 39.29 145.414 39.07 146.674 39.07H148.564V31.96C147.504 31.96 146.484 32.26 145.504 32.86Z" fill="#f0f0f0"/>
</svg>
